<svg width="316" height="316" viewBox="0 0 316 316" fill="none" xmlns="http://www.w3.org/2000/svg">
    <rect width="316" height="316" rx="1" fill="#F2B035" />
    <path
        d="M227.685 143.75H220.322V165.886H205.692V173.297H220.322V180.66H205.692V188.022H220.322V195.433H227.685V188.022H235V180.66H227.685V173.297H235V165.886H227.685V143.75Z"
        fill="#000001" />
    <path d="M220.322 195.434H213.007V202.796H220.322V195.434Z" fill="#000001" />
    <path d="M220.322 128.977H213.007V143.75H220.322V128.977Z" fill="#000001" />
    <path d="M213.007 202.796H205.692V210.207H213.007V202.796Z" fill="#000001" />
    <path d="M213.007 114.252H205.692V128.977H213.007V114.252Z" fill="#000001" />
    <path d="M205.692 99.479H198.329V114.252H205.692V99.479Z" fill="#000001" />
    <path d="M205.692 210.207H191.014V217.57H205.692V210.207Z" fill="#000001" />
    <path d="M198.329 188.022H191.014V195.433H198.329V188.022Z" fill="#000001" />
    <path d="M198.329 173.297H191.014V180.66H198.329V173.297Z" fill="#000001" />
    <path d="M198.329 92.0679H191.014V99.4788H198.329V92.0679Z" fill="#000001" />
    <path d="M191.014 99.479H183.699V106.842H191.014V99.479Z" fill="#000001" />
    <path d="M191.014 217.569H125.034V224.932H191.014V217.569Z" fill="#000001" />
    <path d="M183.699 121.615H176.335V136.388H183.699V121.615Z" fill="#000001" />
    <path d="M183.699 106.841H176.335V114.252H183.699V106.841Z" fill="#000001" />
    <path d="M176.336 151.113H169.021V158.524H176.336V151.113Z" fill="#000001" />
    <path d="M169.021 188.022H161.658V195.433H169.021V188.022Z" fill="#000001" />
    <path d="M139.665 165.887V173.298H147.028V180.66H161.658V173.298H169.021V165.887H139.665Z"
        fill="#000001" />
    <path d="M161.657 195.434H147.027V202.796H161.657V195.434Z" fill="#000001" />
    <path d="M154.343 121.615V136.388H161.658V121.615H176.336V114.252H139.665V121.615H154.343Z"
        fill="#000001" />
    <path d="M139.665 151.113H132.35V158.524H139.665V151.113Z" fill="#000001" />
    <path d="M139.665 121.615H132.35V136.388H139.665V121.615Z" fill="#000001" />
    <path d="M139.665 106.841H132.35V114.252H139.665V106.841Z" fill="#000001" />
    <path d="M132.349 99.479H125.034V106.842H132.349V99.479Z" fill="#000001" />
    <path d="M125.035 210.207H110.356V217.57H125.035V210.207Z" fill="#000001" />
    <path d="M125.035 188.022H117.671V195.433H125.035V188.022Z" fill="#000001" />
    <path d="M125.035 173.297H117.671V180.66H125.035V173.297Z" fill="#000001" />
    <path d="M125.035 92.0679H117.671V99.4788H125.035V92.0679Z" fill="#000001" />
    <path d="M117.671 99.479H110.356V114.252H117.671V99.479Z" fill="#000001" />
    <path d="M110.356 202.796H102.993V210.207H110.356V202.796Z" fill="#000001" />
    <path d="M110.356 114.252H102.993V128.977H110.356V114.252Z" fill="#000001" />
    <path d="M102.993 195.434H95.6782V202.796H102.993V195.434Z" fill="#000001" />
    <path
        d="M110.356 188.022V180.66H95.6781V173.297H110.356V165.886H95.6781V143.75H88.3631V165.886H81V173.297H88.3631V180.66H81V188.022H88.3631V195.433H95.6781V188.022H110.356Z"
        fill="#000001" />
    <path d="M102.993 128.977H95.6782V143.75H102.993V128.977Z" fill="#000001" />
</svg>