<svg width="557" height="701" viewBox="0 0 557 701" fill="none" xmlns="http://www.w3.org/2000/svg">
<g clip-path="url(#clip0_5001_848)">
<rect width="557" height="701" fill="#F2B035"/>
<g clip-path="url(#clip1_5001_848)">
<rect width="428" height="926" transform="translate(64 85)" fill="white"/>
<g clip-path="url(#clip2_5001_848)">
<rect width="428" height="48" transform="translate(64 85)" fill="#F2B035"/>
<path d="M186 83H369C367.224 83.6081 366.013 85.2549 365.961 87.131L365.922 88.5618C365.922 102.059 354.981 113 341.484 113H213.516C200.019 113 189.078 102.059 189.078 88.5618L189.039 87.131C188.987 85.2549 187.776 83.6081 186 83Z" fill="black"/>
<path opacity="0.35" d="M455 102.833H471.666C472.863 102.833 473.833 103.804 473.833 105V111C473.833 112.197 472.863 113.166 471.666 113.166H455C453.804 113.166 452.833 112.197 452.833 111V105L452.844 104.779C452.955 103.686 453.878 102.833 455 102.833Z" stroke="black"/>
<path opacity="0.4" d="M475.333 106V110C476.138 109.661 476.661 108.873 476.661 108C476.661 107.127 476.138 106.339 475.333 106Z" fill="black"/>
<path d="M454.333 105.667C454.333 104.93 454.93 104.333 455.667 104.333H471C471.736 104.333 472.333 104.93 472.333 105.667V110.333C472.333 111.07 471.736 111.667 471 111.667H455.667C454.93 111.667 454.333 111.07 454.333 110.333V105.667Z" fill="black"/>
<path d="M437.454 110.731C438.729 109.652 440.598 109.652 441.873 110.731C441.938 110.789 441.975 110.871 441.977 110.958C441.979 111.044 441.944 111.128 441.882 111.188L439.885 113.204C439.827 113.263 439.747 113.297 439.664 113.297C439.58 113.297 439.5 113.263 439.442 113.204L437.444 111.188C437.382 111.128 437.348 111.044 437.35 110.958C437.352 110.871 437.389 110.789 437.454 110.731ZM434.789 108.042C437.537 105.486 441.792 105.486 444.54 108.042C444.602 108.102 444.638 108.184 444.639 108.27C444.64 108.357 444.606 108.44 444.545 108.501L443.391 109.668C443.272 109.787 443.08 109.79 442.957 109.674C442.055 108.856 440.881 108.404 439.664 108.404C438.447 108.405 437.273 108.857 436.372 109.674C436.25 109.789 436.058 109.787 435.939 109.668L434.785 108.501C434.724 108.44 434.689 108.357 434.69 108.27C434.691 108.184 434.727 108.102 434.789 108.042ZM432.123 105.36C436.339 101.321 442.989 101.321 447.204 105.36C447.265 105.42 447.299 105.502 447.299 105.588C447.3 105.673 447.266 105.756 447.206 105.816L446.05 106.983C445.931 107.103 445.738 107.104 445.617 106.986C444.011 105.459 441.879 104.608 439.664 104.608C437.447 104.608 435.316 105.459 433.709 106.986C433.589 107.104 433.396 107.103 433.277 106.983L432.121 105.816C432.06 105.755 432.026 105.673 432.027 105.588C432.027 105.502 432.062 105.42 432.123 105.36Z" fill="black"/>
<path d="M412 109.333C412.552 109.333 413 109.781 413 110.333V112.333C413 112.885 412.552 113.333 412 113.333H411C410.448 113.333 410 112.885 410 112.333V110.333C410 109.781 410.448 109.333 411 109.333H412ZM416.667 107.333C417.219 107.333 417.667 107.781 417.667 108.333V112.333C417.667 112.885 417.219 113.333 416.667 113.333H415.667C415.115 113.333 414.667 112.885 414.667 112.333V108.333C414.667 107.781 415.115 107.333 415.667 107.333H416.667ZM421.333 105C421.885 105 422.333 105.448 422.333 106V112.333C422.333 112.885 421.885 113.333 421.333 113.333H420.333C419.781 113.333 419.333 112.885 419.333 112.333V106C419.333 105.448 419.781 105 420.333 105H421.333ZM426 102.666C426.552 102.666 427 103.114 427 103.666V112.333C427 112.885 426.552 113.333 426 113.333H425C424.448 113.333 424 112.885 424 112.333V103.666C424 103.114 424.448 102.666 425 102.666H426Z" fill="black"/>
<path d="M101.321 113.256C104.009 113.256 105.605 111.154 105.605 107.595C105.605 106.254 105.349 105.126 104.858 104.255C104.148 102.9 102.925 102.167 101.379 102.167C99.0795 102.167 97.4535 103.713 97.4535 105.881C97.4535 107.917 98.9183 109.396 100.932 109.396C102.17 109.396 103.174 108.818 103.672 107.814H103.694C103.694 107.814 103.723 107.814 103.73 107.814C103.745 107.814 103.796 107.814 103.796 107.814C103.796 110.231 102.881 111.674 101.335 111.674C100.427 111.674 99.724 111.176 99.4823 110.378H97.6C97.9149 112.114 99.3871 113.256 101.321 113.256ZM101.387 107.895C100.171 107.895 99.3065 107.031 99.3065 105.822C99.3065 104.643 100.215 103.742 101.394 103.742C102.573 103.742 103.481 104.658 103.481 105.852C103.481 107.031 102.595 107.895 101.387 107.895Z" fill="black"/>
<path d="M108.696 113.154C109.392 113.154 109.868 112.656 109.868 111.997C109.868 111.33 109.392 110.839 108.696 110.839C108.008 110.839 107.525 111.33 107.525 111.997C107.525 112.656 108.008 113.154 108.696 113.154ZM108.696 107.661C109.392 107.661 109.868 107.17 109.868 106.511C109.868 105.844 109.392 105.354 108.696 105.354C108.008 105.354 107.525 105.844 107.525 106.511C107.525 107.17 108.008 107.661 108.696 107.661Z" fill="black"/>
<path d="M116.724 113H118.533V111.03H119.961V109.433H118.533V102.431H115.867C113.999 105.244 112.513 107.595 111.561 109.345V111.03H116.724V113ZM113.311 109.367C114.541 107.199 115.64 105.463 116.651 103.969H116.753V109.477H113.311V109.367Z" fill="black"/>
<path d="M123.99 113H125.88V102.431H123.997L121.236 104.365V106.181L123.865 104.335H123.99V113Z" fill="black"/>
</g>
<rect opacity="0.5" x="64" y="83" width="428" height="928" fill="black"/>
<rect width="426" height="869" transform="translate(65 142)" fill="white"/>
<mask id="path-10-outside-1_5001_848" maskUnits="userSpaceOnUse" x="65" y="142" width="428" height="63" fill="black">
<rect fill="white" x="65" y="142" width="428" height="63"/>
<path d="M65 142H493V204H65V142Z"/>
</mask>
<path d="M65 142H493V204H65V142Z" fill="white"/>
<path d="M493 204V203.5H65V204V204.5H493V204Z" fill="#D9D9D9" mask="url(#path-10-outside-1_5001_848)"/>
<path d="M440.916 178.055C440.738 177.986 440.564 177.866 440.393 177.695L431.799 169.101C431.615 168.918 431.518 168.693 431.505 168.427C431.492 168.161 431.59 167.924 431.799 167.716C432.007 167.507 432.238 167.403 432.492 167.403C432.745 167.403 432.976 167.507 433.184 167.716L441.5 176.031L449.816 167.716C449.999 167.532 450.223 167.434 450.49 167.422C450.756 167.409 450.993 167.507 451.201 167.716C451.41 167.924 451.514 168.155 451.514 168.408C451.514 168.662 451.41 168.893 451.201 169.101L442.607 177.695C442.436 177.866 442.262 177.986 442.084 178.055C441.905 178.124 441.711 178.158 441.5 178.158C441.289 178.158 441.095 178.124 440.916 178.055Z" fill="#1F1F1F"/>
<path d="M238.184 179V167.8H241.912C242.765 167.8 243.464 167.955 244.008 168.264C244.552 168.573 244.952 168.984 245.208 169.496C245.464 170.008 245.592 170.573 245.592 171.192C245.592 171.811 245.464 172.376 245.208 172.888C244.952 173.4 244.552 173.811 244.008 174.12C243.464 174.429 242.765 174.584 241.912 174.584H239.528V179H238.184ZM239.528 173.352H241.88C242.669 173.352 243.256 173.155 243.64 172.76C244.024 172.355 244.216 171.832 244.216 171.192C244.216 170.552 244.024 170.029 243.64 169.624C243.256 169.219 242.669 169.016 241.88 169.016H239.528V173.352ZM247.25 179L250.626 173.4L247.25 167.8H248.786L251.426 172.184L254.002 167.8H255.538L252.146 173.384L255.538 179H254.002L251.346 174.6L248.786 179H247.25ZM256.844 179L260.22 173.4L256.844 167.8H258.38L261.02 172.184L263.596 167.8H265.132L261.74 173.384L265.132 179H263.596L260.94 174.6L258.38 179H256.844ZM267.173 179V167.8H268.517V177.784H274.197V179H267.173Z" fill="black"/>
<path d="M221 156H186V190.14H221V156Z" fill="#6433CC"/>
<circle cx="108.5" cy="173.5" r="22.5" fill="white"/>
<circle cx="108.5" cy="173.5" r="23" stroke="black" stroke-opacity="0.06"/>
<path d="M99.5 169.562H117.5" stroke="black" stroke-width="1.5" stroke-linecap="round" stroke-linejoin="round"/>
<path d="M99.5 177.438H117.5" stroke="black" stroke-width="1.5" stroke-linecap="round" stroke-linejoin="round"/>
<path d="M155.76 502V489.402H145.877V502H141.366V474.07H145.877V485.77H155.76V474.07H160.272V502H155.76ZM173.593 502.488C171.464 502.488 169.57 501.883 167.929 500.652C166.288 499.441 164.999 497.723 164.101 495.535C163.202 493.348 162.753 490.848 162.753 488.035C162.753 485.242 163.202 482.742 164.101 480.555C164.999 478.367 166.288 476.668 167.929 475.438C169.57 474.227 171.464 473.602 173.593 473.602C175.722 473.602 177.616 474.227 179.257 475.438C180.898 476.668 182.187 478.367 183.085 480.555C183.984 482.742 184.433 485.242 184.433 488.035C184.433 490.848 183.984 493.348 183.085 495.535C182.187 497.723 180.898 499.441 179.257 500.652C177.616 501.883 175.722 502.488 173.593 502.488ZM173.593 498.797C175.429 498.797 176.933 497.801 178.105 495.809C179.257 493.816 179.843 491.219 179.843 488.035C179.843 484.871 179.257 482.273 178.105 480.281C176.933 478.289 175.429 477.273 173.593 477.273C171.738 477.273 170.234 478.289 169.081 480.281C167.929 482.273 167.363 484.871 167.363 488.035C167.363 491.219 167.929 493.816 169.081 495.809C170.234 497.801 171.738 498.797 173.593 498.797ZM190.234 502L184.59 474.07H189.355L191.914 487.156C192.227 488.68 192.5 490.105 192.754 491.453C192.988 492.82 193.164 493.797 193.262 494.383L193.398 495.281C193.711 493.25 194.199 490.555 194.844 487.195L197.285 474.07H201.758L204.238 487.156C204.551 488.68 204.824 490.105 205.059 491.453C205.293 492.82 205.469 493.797 205.566 494.383L205.684 495.281C206.035 493.25 206.523 490.555 207.168 487.195L209.727 474.07H214.434L208.809 502H203.633L201.113 489.715C200.762 488.211 200.449 486.785 200.176 485.438C199.902 484.09 199.727 483.113 199.648 482.527L199.512 481.648C199.16 483.66 198.652 486.336 197.969 489.676L195.391 502H190.234ZM231.408 502.488C229.22 502.488 227.306 501.883 225.627 500.672C223.947 499.461 222.638 497.742 221.72 495.555C220.802 493.367 220.353 490.848 220.353 488.035C220.353 483.777 221.349 480.32 223.38 477.625C225.392 474.949 228.009 473.602 231.232 473.602C233.966 473.602 236.232 474.539 238.068 476.375C239.904 478.211 241.017 480.887 241.408 484.363L236.759 484.871C236.623 482.371 236.056 480.496 235.041 479.207C234.025 477.918 232.755 477.273 231.232 477.273C229.377 477.273 227.873 478.27 226.701 480.262C225.529 482.254 224.963 484.852 224.963 488.035C224.963 491.238 225.548 493.836 226.72 495.828C227.892 497.82 229.455 498.797 231.408 498.797C232.892 498.797 234.123 498.133 235.138 496.766C236.134 495.418 236.681 493.68 236.759 491.551L241.369 491.844C241.173 495.047 240.177 497.605 238.38 499.559C236.564 501.512 234.24 502.488 231.408 502.488ZM241.096 502L248.342 474.07H255.139L262.229 502H257.541L255.705 494.559H247.659L245.784 502H241.096ZM248.577 490.926H254.827L253.577 485.926C253.166 484.441 252.815 483.016 252.502 481.688C252.19 480.359 251.995 479.383 251.897 478.797L251.741 477.918C251.311 479.93 250.686 482.586 249.866 485.887L248.577 490.926ZM263.87 502V474.07H268.87L278.265 494.324C278.206 492.254 278.187 489.52 278.187 486.121V474.07H282.698V502H277.659L268.304 481.766C268.382 483.836 268.421 486.57 268.421 489.969V502H263.87ZM295.278 502L289.634 474.07H294.399L296.958 487.156C297.27 488.68 297.544 490.105 297.798 491.453C298.032 492.82 298.208 493.797 298.305 494.383L298.442 495.281C298.755 493.25 299.243 490.555 299.888 487.195L302.329 474.07H306.802L309.282 487.156C309.595 488.68 309.868 490.105 310.102 491.453C310.337 492.82 310.513 493.797 310.61 494.383L310.727 495.281C311.079 493.25 311.567 490.555 312.212 487.195L314.77 474.07H319.477L313.852 502H308.677L306.157 489.715C305.805 488.211 305.493 486.785 305.22 485.438C304.946 484.09 304.77 483.113 304.692 482.527L304.555 481.648C304.204 483.66 303.696 486.336 303.013 489.676L300.434 502H295.278ZM321.236 502V474.07H335.943V477.762H325.748V485.77H334.459V489.402H325.748V498.328H336.06V502H321.236ZM358.874 502V489.402H348.991V502H344.48V474.07H348.991V485.77H358.874V474.07H363.386V502H358.874ZM366.922 502V474.07H381.629V477.762H371.434V485.77H380.145V489.402H371.434V498.328H381.746V502H366.922ZM384.247 502V474.07H388.759V498.328H398.915V502H384.247ZM400.634 502V474.07H408.271C411.103 474.07 413.291 474.91 414.853 476.551C416.396 478.191 417.177 480.477 417.177 483.367C417.177 486.277 416.396 488.543 414.834 490.184C413.271 491.824 411.084 492.645 408.271 492.645H405.146V502H400.634ZM405.146 488.953H407.744C409.267 488.953 410.439 488.465 411.298 487.488C412.158 486.512 412.587 485.125 412.587 483.367C412.587 481.609 412.158 480.223 411.298 479.246C410.439 478.27 409.248 477.762 407.705 477.762H405.146V488.953ZM246.321 556V544.77L238.919 528.07H243.841L245.833 533.207C246.419 534.652 246.946 536 247.415 537.289C247.884 538.578 248.216 539.516 248.411 540.062L248.684 540.922C249.29 538.988 250.208 536.43 251.438 533.246L253.391 528.07H258.391L250.911 544.77V556H246.321ZM268.041 556.488C265.912 556.488 264.017 555.883 262.377 554.652C260.736 553.441 259.447 551.723 258.548 549.535C257.65 547.348 257.201 544.848 257.201 542.035C257.201 539.242 257.65 536.742 258.548 534.555C259.447 532.367 260.736 530.668 262.377 529.438C264.017 528.227 265.912 527.602 268.041 527.602C270.17 527.602 272.064 528.227 273.705 529.438C275.345 530.668 276.634 532.367 277.533 534.555C278.431 536.742 278.88 539.242 278.88 542.035C278.88 544.848 278.431 547.348 277.533 549.535C276.634 551.723 275.345 553.441 273.705 554.652C272.064 555.883 270.17 556.488 268.041 556.488ZM268.041 552.797C269.877 552.797 271.38 551.801 272.552 549.809C273.705 547.816 274.291 545.219 274.291 542.035C274.291 538.871 273.705 536.273 272.552 534.281C271.38 532.289 269.877 531.273 268.041 531.273C266.185 531.273 264.681 532.289 263.529 534.281C262.377 536.273 261.81 538.871 261.81 542.035C261.81 545.219 262.377 547.816 263.529 549.809C264.681 551.801 266.185 552.797 268.041 552.797ZM290.561 556.488C287.573 556.488 285.248 555.531 283.608 553.617C281.967 551.703 281.147 549.047 281.147 545.609V528.07H285.678V545.688C285.678 547.992 286.088 549.75 286.948 550.961C287.788 552.191 288.998 552.797 290.561 552.797C292.123 552.797 293.334 552.191 294.194 550.961C295.053 549.75 295.483 547.992 295.483 545.688V528.07H299.995V545.609C299.995 549.047 299.155 551.703 297.514 553.617C295.873 555.531 293.549 556.488 290.561 556.488ZM309.644 548.324C307.573 548.324 305.913 547.816 304.624 546.781C303.335 545.746 302.691 544.398 302.691 542.719C302.691 541.82 302.866 541.02 303.237 540.316C303.589 539.613 304.077 539.066 304.663 538.637C305.249 538.227 305.913 537.855 306.616 537.523C307.32 537.211 308.042 536.918 308.745 536.645C309.448 536.371 310.112 536.098 310.698 535.805C311.284 535.531 311.773 535.16 312.144 534.711C312.495 534.281 312.691 533.754 312.691 533.168C312.691 532.406 312.417 531.801 311.909 531.352C311.402 530.922 310.737 530.688 309.937 530.688C308.921 530.688 308.081 531.059 307.437 531.762C306.792 532.484 306.441 533.461 306.402 534.672L302.359 534.32C302.515 532.289 303.296 530.668 304.702 529.438C306.109 528.227 307.905 527.602 310.054 527.602C311.323 527.602 312.476 527.836 313.491 528.266C314.507 528.695 315.308 529.359 315.933 530.258C316.558 531.156 316.87 532.23 316.89 533.48C316.89 534.32 316.734 535.082 316.46 535.746C316.167 536.41 315.796 536.957 315.327 537.367C314.859 537.797 314.312 538.188 313.726 538.539C313.12 538.891 312.515 539.184 311.89 539.398C311.265 539.633 310.64 539.867 310.054 540.121C309.448 540.375 308.921 540.629 308.452 540.863C307.984 541.098 307.593 541.41 307.32 541.781C307.027 542.152 306.89 542.562 306.89 543.031C306.89 543.734 307.144 544.32 307.652 544.75C308.159 545.18 308.843 545.395 309.683 545.395C310.659 545.395 311.48 545.082 312.163 544.418C312.827 543.773 313.179 542.953 313.198 541.957L317.163 542.23C317.007 544.047 316.265 545.512 314.937 546.645C313.609 547.777 311.851 548.324 309.644 548.324ZM307.202 556V551.234H312.124V556H307.202Z" fill="black"/>
<rect x="97.5" y="601.5" width="258" height="47" stroke="#EDEDED"/>
<path d="M118.526 630L117.028 620.2H118.218L119.212 627.76L120.598 620.2H121.802L123.188 627.76L124.182 620.2H125.372L123.874 630H122.53L121.2 622.468L119.87 630H118.526ZM126.053 630V620.2H127.229V624.428H131.975V620.2H133.151V630H131.975V625.492H127.229V630H126.053ZM134.251 630L137.317 620.2H138.675L141.727 630H140.439L139.725 627.564H136.253L135.539 630H134.251ZM137.961 621.852L136.547 626.584H139.431L138.017 621.852H137.961ZM145.796 630V621.264H143.164V620.2H149.604V621.264H146.972V630H145.796ZM160.359 630V628.978H162.585V621.222H160.359V620.2H165.987V621.222H163.761V628.978H165.987V630H160.359ZM171.665 630.168C170.975 630.168 170.373 630.037 169.859 629.776C169.355 629.515 168.963 629.151 168.683 628.684C168.413 628.217 168.273 627.671 168.263 627.046H169.495C169.505 627.606 169.691 628.091 170.055 628.502C170.429 628.903 170.965 629.104 171.665 629.104C172.309 629.104 172.804 628.95 173.149 628.642C173.504 628.325 173.681 627.947 173.681 627.508C173.681 627.144 173.597 626.841 173.429 626.598C173.261 626.346 172.986 626.127 172.603 625.94C172.23 625.744 171.726 625.543 171.091 625.338C170.195 625.067 169.542 624.699 169.131 624.232C168.721 623.765 168.515 623.187 168.515 622.496C168.515 622.029 168.637 621.609 168.879 621.236C169.122 620.863 169.472 620.569 169.929 620.354C170.387 620.139 170.942 620.032 171.595 620.032C172.211 620.032 172.748 620.149 173.205 620.382C173.672 620.606 174.031 620.923 174.283 621.334C174.545 621.745 174.675 622.216 174.675 622.748H173.443C173.443 622.487 173.373 622.23 173.233 621.978C173.093 621.726 172.883 621.516 172.603 621.348C172.323 621.18 171.969 621.096 171.539 621.096C171.026 621.096 170.597 621.222 170.251 621.474C169.906 621.717 169.733 622.053 169.733 622.482C169.733 622.809 169.808 623.084 169.957 623.308C170.116 623.532 170.373 623.737 170.727 623.924C171.082 624.101 171.563 624.293 172.169 624.498C172.739 624.685 173.224 624.904 173.625 625.156C174.036 625.399 174.349 625.702 174.563 626.066C174.787 626.43 174.899 626.883 174.899 627.424C174.899 627.956 174.764 628.427 174.493 628.838C174.223 629.249 173.845 629.575 173.359 629.818C172.874 630.051 172.309 630.168 171.665 630.168ZM187.768 630V621.264H185.136V620.2H191.576V621.264H188.944V630H187.768ZM193.209 630V620.2H194.385V624.428H199.131V620.2H200.307V630H199.131V625.492H194.385V630H193.209ZM202.331 630V628.978H204.557V621.222H202.331V620.2H207.959V621.222H205.733V628.978H207.959V630H202.331ZM213.638 630.168C212.947 630.168 212.345 630.037 211.832 629.776C211.328 629.515 210.936 629.151 210.656 628.684C210.385 628.217 210.245 627.671 210.236 627.046H211.468C211.477 627.606 211.664 628.091 212.028 628.502C212.401 628.903 212.938 629.104 213.638 629.104C214.282 629.104 214.777 628.95 215.122 628.642C215.477 628.325 215.654 627.947 215.654 627.508C215.654 627.144 215.57 626.841 215.402 626.598C215.234 626.346 214.959 626.127 214.576 625.94C214.203 625.744 213.699 625.543 213.064 625.338C212.168 625.067 211.515 624.699 211.104 624.232C210.693 623.765 210.488 623.187 210.488 622.496C210.488 622.029 210.609 621.609 210.852 621.236C211.095 620.863 211.445 620.569 211.902 620.354C212.359 620.139 212.915 620.032 213.568 620.032C214.184 620.032 214.721 620.149 215.178 620.382C215.645 620.606 216.004 620.923 216.256 621.334C216.517 621.745 216.648 622.216 216.648 622.748H215.416C215.416 622.487 215.346 622.23 215.206 621.978C215.066 621.726 214.856 621.516 214.576 621.348C214.296 621.18 213.941 621.096 213.512 621.096C212.999 621.096 212.569 621.222 212.224 621.474C211.879 621.717 211.706 622.053 211.706 622.482C211.706 622.809 211.781 623.084 211.93 623.308C212.089 623.532 212.345 623.737 212.7 623.924C213.055 624.101 213.535 624.293 214.142 624.498C214.711 624.685 215.197 624.904 215.598 625.156C216.009 625.399 216.321 625.702 216.536 626.066C216.76 626.43 216.872 626.883 216.872 627.424C216.872 627.956 216.737 628.427 216.466 628.838C216.195 629.249 215.817 629.575 215.332 629.818C214.847 630.051 214.282 630.168 213.638 630.168ZM230.399 630.168C229.606 630.168 228.92 629.958 228.341 629.538C227.772 629.118 227.333 628.53 227.025 627.774C226.726 627.018 226.577 626.127 226.577 625.1C226.577 624.083 226.726 623.196 227.025 622.44C227.333 621.675 227.772 621.082 228.341 620.662C228.92 620.242 229.606 620.032 230.399 620.032C231.407 620.032 232.219 620.312 232.835 620.872C233.451 621.423 233.81 622.16 233.913 623.084H232.611C232.518 622.533 232.284 622.071 231.911 621.698C231.538 621.325 231.034 621.138 230.399 621.138C229.587 621.138 228.948 621.493 228.481 622.202C228.014 622.902 227.781 623.868 227.781 625.1C227.781 626.341 228.014 627.312 228.481 628.012C228.948 628.712 229.587 629.062 230.399 629.062C231.062 629.062 231.57 628.885 231.925 628.53C232.289 628.175 232.518 627.718 232.611 627.158H233.913C233.764 628.091 233.39 628.829 232.793 629.37C232.205 629.902 231.407 630.168 230.399 630.168ZM238.723 630.168C237.93 630.168 237.249 629.958 236.679 629.538C236.11 629.118 235.671 628.53 235.363 627.774C235.065 627.009 234.915 626.117 234.915 625.1C234.915 624.083 235.065 623.196 235.363 622.44C235.671 621.675 236.11 621.082 236.679 620.662C237.249 620.242 237.93 620.032 238.723 620.032C239.517 620.032 240.198 620.242 240.767 620.662C241.337 621.082 241.771 621.675 242.069 622.44C242.377 623.196 242.531 624.083 242.531 625.1C242.531 626.117 242.377 627.009 242.069 627.774C241.771 628.53 241.337 629.118 240.767 629.538C240.198 629.958 239.517 630.168 238.723 630.168ZM238.723 629.062C239.498 629.062 240.123 628.717 240.599 628.026C241.085 627.335 241.327 626.36 241.327 625.1C241.327 623.84 241.085 622.865 240.599 622.174C240.123 621.483 239.498 621.138 238.723 621.138C237.939 621.138 237.309 621.483 236.833 622.174C236.357 622.865 236.119 623.84 236.119 625.1C236.119 626.36 236.357 627.335 236.833 628.026C237.309 628.717 237.939 629.062 238.723 629.062ZM243.618 630V620.2H244.878L247.118 624.862L249.358 620.2H250.618V630H249.47V622.468L247.566 626.43H246.67L244.766 622.482V630H243.618ZM252.349 630V620.2H255.611C256.357 620.2 256.969 620.335 257.445 620.606C257.921 620.877 258.271 621.236 258.495 621.684C258.719 622.132 258.831 622.627 258.831 623.168C258.831 623.709 258.719 624.204 258.495 624.652C258.271 625.1 257.921 625.459 257.445 625.73C256.969 626.001 256.357 626.136 255.611 626.136H253.525V630H252.349ZM253.525 625.058H255.583C256.273 625.058 256.787 624.885 257.123 624.54C257.459 624.185 257.627 623.728 257.627 623.168C257.627 622.608 257.459 622.151 257.123 621.796C256.787 621.441 256.273 621.264 255.583 621.264H253.525V625.058ZM260.169 630L263.235 620.2H264.593L267.645 630H266.357L265.643 627.564H262.171L261.457 630H260.169ZM263.879 621.852L262.465 626.584H265.349L263.935 621.852H263.879ZM268.9 630V620.2H270.104L274.556 627.942V620.2H275.718V630H274.5L270.048 622.258V630H268.9ZM280.108 630V626.15L276.93 620.2H278.26L280.696 624.96L283.132 620.2H284.462L281.284 626.15V630H280.108ZM293.747 630L296.813 620.2H298.171L301.223 630H299.935L299.221 627.564H295.749L295.035 630H293.747ZM297.457 621.852L296.043 626.584H298.927L297.513 621.852H297.457ZM302.604 630V620.2H305.866C306.883 620.2 307.648 620.433 308.162 620.9C308.675 621.367 308.932 621.964 308.932 622.692C308.932 623.261 308.778 623.733 308.47 624.106C308.162 624.47 307.816 624.727 307.434 624.876V624.974C307.891 625.123 308.292 625.394 308.638 625.786C308.983 626.178 309.156 626.682 309.156 627.298C309.156 627.802 309.03 628.259 308.778 628.67C308.535 629.071 308.176 629.393 307.7 629.636C307.233 629.879 306.659 630 305.978 630H302.604ZM303.78 624.428H305.782C306.407 624.428 306.883 624.293 307.21 624.022C307.546 623.742 307.714 623.341 307.714 622.818C307.714 622.323 307.55 621.941 307.224 621.67C306.897 621.399 306.402 621.264 305.74 621.264H303.78V624.428ZM303.78 628.922H305.852C306.524 628.922 307.042 628.773 307.406 628.474C307.77 628.166 307.952 627.737 307.952 627.186C307.952 626.635 307.76 626.211 307.378 625.912C306.995 625.604 306.477 625.45 305.824 625.45H303.78V628.922ZM314.274 630.168C313.481 630.168 312.8 629.958 312.23 629.538C311.661 629.118 311.222 628.53 310.914 627.774C310.616 627.009 310.466 626.117 310.466 625.1C310.466 624.083 310.616 623.196 310.914 622.44C311.222 621.675 311.661 621.082 312.23 620.662C312.8 620.242 313.481 620.032 314.274 620.032C315.068 620.032 315.749 620.242 316.318 620.662C316.888 621.082 317.322 621.675 317.62 622.44C317.928 623.196 318.082 624.083 318.082 625.1C318.082 626.117 317.928 627.009 317.62 627.774C317.322 628.53 316.888 629.118 316.318 629.538C315.749 629.958 315.068 630.168 314.274 630.168ZM314.274 629.062C315.049 629.062 315.674 628.717 316.15 628.026C316.636 627.335 316.878 626.36 316.878 625.1C316.878 623.84 316.636 622.865 316.15 622.174C315.674 621.483 315.049 621.138 314.274 621.138C313.49 621.138 312.86 621.483 312.384 622.174C311.908 622.865 311.67 623.84 311.67 625.1C311.67 626.36 311.908 627.335 312.384 628.026C312.86 628.717 313.49 629.062 314.274 629.062ZM322.655 630.168C322.001 630.168 321.418 630.033 320.905 629.762C320.401 629.491 319.999 629.081 319.701 628.53C319.411 627.97 319.267 627.27 319.267 626.43V620.2H320.443V626.472C320.443 627.312 320.648 627.961 321.059 628.418C321.469 628.875 322.011 629.104 322.683 629.104C323.355 629.104 323.891 628.875 324.293 628.418C324.694 627.961 324.895 627.312 324.895 626.472V620.2H326.071V626.43C326.071 627.27 325.921 627.97 325.623 628.53C325.324 629.081 324.918 629.491 324.405 629.762C323.891 630.033 323.308 630.168 322.655 630.168ZM330.475 630V621.264H327.843V620.2H334.283V621.264H331.651V630H330.475Z" fill="black"/>
<rect x="78.5" y="662.5" width="224" height="47" stroke="#EDEDED"/>
<path d="M98.798 691V681.2H100.002L104.454 688.942V681.2H105.616V691H104.398L99.946 683.258V691H98.798ZM107.599 691V681.2H113.717V682.264H108.775V685.526H113.297V686.59H108.775V689.936H113.717V691H107.599ZM115.993 691V681.2H122.111V682.264H117.169V685.526H121.691V686.59H117.169V689.936H122.111V691H115.993ZM124.108 691V681.2H126.166C127.771 681.2 128.956 681.639 129.722 682.516C130.496 683.393 130.884 684.588 130.884 686.1C130.884 687.612 130.496 688.807 129.722 689.684C128.956 690.561 127.771 691 126.166 691H124.108ZM125.284 689.922H126.138C126.996 689.922 127.682 689.763 128.196 689.446C128.718 689.129 129.096 688.685 129.33 688.116C129.563 687.547 129.68 686.875 129.68 686.1C129.68 685.325 129.563 684.653 129.33 684.084C129.096 683.515 128.718 683.071 128.196 682.754C127.682 682.437 126.996 682.278 126.138 682.278H125.284V689.922ZM140.631 691V681.2H141.807V685.428H146.553V681.2H147.729V691H146.553V686.492H141.807V691H140.631ZM149.571 691V681.2H155.689V682.264H150.747V685.526H155.269V686.59H150.747V689.936H155.689V691H149.571ZM157.98 691V681.2H159.156V689.936H164.126V691H157.98ZM166.192 691V681.2H169.454C170.201 681.2 170.812 681.335 171.288 681.606C171.764 681.877 172.114 682.236 172.338 682.684C172.562 683.132 172.674 683.627 172.674 684.168C172.674 684.709 172.562 685.204 172.338 685.652C172.114 686.1 171.764 686.459 171.288 686.73C170.812 687.001 170.201 687.136 169.454 687.136H167.368V691H166.192ZM167.368 686.058H169.426C170.117 686.058 170.63 685.885 170.966 685.54C171.302 685.185 171.47 684.728 171.47 684.168C171.47 683.608 171.302 683.151 170.966 682.796C170.63 682.441 170.117 682.264 169.426 682.264H167.368V686.058ZM183.471 691L181.973 681.2H183.163L184.157 688.76L185.543 681.2H186.747L188.133 688.76L189.127 681.2H190.317L188.819 691H187.475L186.145 683.468L184.815 691H183.471ZM191.726 691V689.978H193.952V682.222H191.726V681.2H197.354V682.222H195.128V689.978H197.354V691H191.726ZM202.346 691V682.264H199.714V681.2H206.154V682.264H203.522V691H202.346ZM207.787 691V681.2H208.963V685.428H213.709V681.2H214.885V691H213.709V686.492H208.963V691H207.787ZM224.842 691V681.2H228.104C229.121 681.2 229.887 681.433 230.4 681.9C230.913 682.367 231.17 682.964 231.17 683.692C231.17 684.261 231.016 684.733 230.708 685.106C230.4 685.47 230.055 685.727 229.672 685.876V685.974C230.129 686.123 230.531 686.394 230.876 686.786C231.221 687.178 231.394 687.682 231.394 688.298C231.394 688.802 231.268 689.259 231.016 689.67C230.773 690.071 230.414 690.393 229.938 690.636C229.471 690.879 228.897 691 228.216 691H224.842ZM226.018 685.428H228.02C228.645 685.428 229.121 685.293 229.448 685.022C229.784 684.742 229.952 684.341 229.952 683.818C229.952 683.323 229.789 682.941 229.462 682.67C229.135 682.399 228.641 682.264 227.978 682.264H226.018V685.428ZM226.018 689.922H228.09C228.762 689.922 229.28 689.773 229.644 689.474C230.008 689.166 230.19 688.737 230.19 688.186C230.19 687.635 229.999 687.211 229.616 686.912C229.233 686.604 228.715 686.45 228.062 686.45H226.018V689.922ZM233.699 691V689.978H235.925V682.222H233.699V681.2H239.327V682.222H237.101V689.978H239.327V691H233.699ZM241.925 691V681.2H243.101V689.936H248.071V691H241.925ZM250.32 691V681.2H251.496V689.936H256.466V691H250.32ZM258.882 691V689.978H261.108V682.222H258.882V681.2H264.51V682.222H262.284V689.978H264.51V691H258.882ZM266.689 691V681.2H267.893L272.345 688.942V681.2H273.507V691H272.289L267.837 683.258V691H266.689ZM278.387 691.168C277.696 691.168 277.08 690.967 276.539 690.566C275.998 690.155 275.573 689.572 275.265 688.816C274.966 688.06 274.817 687.155 274.817 686.1C274.817 685.055 274.971 684.154 275.279 683.398C275.587 682.642 276.021 682.059 276.581 681.648C277.15 681.237 277.822 681.032 278.597 681.032C279.521 681.032 280.272 681.303 280.851 681.844C281.439 682.385 281.789 683.113 281.901 684.028H280.599C280.506 683.468 280.286 683.015 279.941 682.67C279.605 682.315 279.157 682.138 278.597 682.138C277.794 682.138 277.164 682.488 276.707 683.188C276.25 683.888 276.021 684.859 276.021 686.1C276.021 687.36 276.25 688.335 276.707 689.026C277.164 689.717 277.757 690.062 278.485 690.062C279.008 690.062 279.437 689.908 279.773 689.6C280.109 689.283 280.361 688.881 280.529 688.396C280.706 687.901 280.804 687.393 280.823 686.87H278.639V685.862H282.027V691H280.949L280.851 689.516H280.795C280.599 690.02 280.31 690.421 279.927 690.72C279.554 691.019 279.04 691.168 278.387 691.168Z" fill="black"/>
<rect x="315.5" y="662.5" width="132" height="47" stroke="#EDEDED"/>
<path d="M335.462 691L338.528 681.2H339.886L342.938 691H341.65L340.936 688.564H337.464L336.75 691H335.462ZM339.172 682.852L337.758 687.584H340.642L339.228 682.852H339.172ZM344.319 691V681.2H346.377C347.982 681.2 349.167 681.639 349.933 682.516C350.707 683.393 351.095 684.588 351.095 686.1C351.095 687.612 350.707 688.807 349.933 689.684C349.167 690.561 347.982 691 346.377 691H344.319ZM345.495 689.922H346.349C347.207 689.922 347.893 689.763 348.407 689.446C348.929 689.129 349.307 688.685 349.541 688.116C349.774 687.547 349.891 686.875 349.891 686.1C349.891 685.325 349.774 684.653 349.541 684.084C349.307 683.515 348.929 683.071 348.407 682.754C347.893 682.437 347.207 682.278 346.349 682.278H345.495V689.922ZM352.713 691V681.2H354.771C356.376 681.2 357.562 681.639 358.327 682.516C359.102 683.393 359.489 684.588 359.489 686.1C359.489 687.612 359.102 688.807 358.327 689.684C357.562 690.561 356.376 691 354.771 691H352.713ZM353.889 689.922H354.743C355.602 689.922 356.288 689.763 356.801 689.446C357.324 689.129 357.702 688.685 357.935 688.116C358.168 687.547 358.285 686.875 358.285 686.1C358.285 685.325 358.168 684.653 357.935 684.084C357.702 683.515 357.324 683.071 356.801 682.754C356.288 682.437 355.602 682.278 354.743 682.278H353.889V689.922ZM369.04 691L372.106 681.2H373.464L376.516 691H375.228L374.514 688.564H371.042L370.328 691H369.04ZM372.75 682.852L371.336 687.584H374.22L372.806 682.852H372.75ZM389.637 691.168C388.844 691.168 388.158 690.958 387.579 690.538C387.01 690.118 386.571 689.53 386.263 688.774C385.965 688.018 385.815 687.127 385.815 686.1C385.815 685.083 385.965 684.196 386.263 683.44C386.571 682.675 387.01 682.082 387.579 681.662C388.158 681.242 388.844 681.032 389.637 681.032C390.645 681.032 391.457 681.312 392.073 681.872C392.689 682.423 393.049 683.16 393.151 684.084H391.849C391.756 683.533 391.523 683.071 391.149 682.698C390.776 682.325 390.272 682.138 389.637 682.138C388.825 682.138 388.186 682.493 387.719 683.202C387.253 683.902 387.019 684.868 387.019 686.1C387.019 687.341 387.253 688.312 387.719 689.012C388.186 689.712 388.825 690.062 389.637 690.062C390.3 690.062 390.809 689.885 391.163 689.53C391.527 689.175 391.756 688.718 391.849 688.158H393.151C393.002 689.091 392.629 689.829 392.031 690.37C391.443 690.902 390.645 691.168 389.637 691.168ZM394.224 691L397.29 681.2H398.648L401.7 691H400.412L399.698 688.564H396.226L395.512 691H394.224ZM397.934 682.852L396.52 687.584H399.404L397.99 682.852H397.934ZM403.304 691V681.2H406.314C407.07 681.2 407.691 681.326 408.176 681.578C408.671 681.83 409.04 682.175 409.282 682.614C409.525 683.043 409.646 683.533 409.646 684.084C409.646 684.728 409.478 685.297 409.142 685.792C408.816 686.277 408.312 686.618 407.63 686.814L409.758 691H408.358L406.384 686.982H406.314H404.48V691H403.304ZM404.48 685.904H406.272C407.019 685.904 407.565 685.736 407.91 685.4C408.265 685.055 408.442 684.616 408.442 684.084C408.442 683.524 408.27 683.081 407.924 682.754C407.588 682.427 407.033 682.264 406.258 682.264H404.48V685.904ZM411.475 691V681.2H413.533C415.138 681.2 416.323 681.639 417.089 682.516C417.863 683.393 418.251 684.588 418.251 686.1C418.251 687.612 417.863 688.807 417.089 689.684C416.323 690.561 415.138 691 413.533 691H411.475ZM412.651 689.922H413.505C414.363 689.922 415.049 689.763 415.563 689.446C416.085 689.129 416.463 688.685 416.697 688.116C416.93 687.547 417.047 686.875 417.047 686.1C417.047 685.325 416.93 684.653 416.697 684.084C416.463 683.515 416.085 683.071 415.563 682.754C415.049 682.437 414.363 682.278 413.505 682.278H412.651V689.922ZM422.025 688.046L421.955 685.974H422.389C423.173 685.974 423.789 685.815 424.237 685.498C424.685 685.181 424.909 684.653 424.909 683.916C424.909 683.347 424.737 682.903 424.391 682.586C424.055 682.259 423.593 682.096 423.005 682.096C422.436 682.096 421.979 682.255 421.633 682.572C421.288 682.88 421.097 683.3 421.059 683.832H419.939C419.958 683.281 420.093 682.796 420.345 682.376C420.607 681.956 420.961 681.629 421.409 681.396C421.867 681.153 422.399 681.032 423.005 681.032C423.929 681.032 424.667 681.289 425.217 681.802C425.777 682.315 426.057 683.015 426.057 683.902C426.057 684.574 425.913 685.115 425.623 685.526C425.343 685.937 424.975 686.245 424.517 686.45C424.06 686.655 423.579 686.777 423.075 686.814L423.033 688.046H422.025ZM422.501 691.028C422.212 691.028 421.965 690.93 421.759 690.734C421.554 690.538 421.451 690.295 421.451 690.006C421.451 689.726 421.554 689.488 421.759 689.292C421.965 689.096 422.212 688.998 422.501 688.998C422.8 688.998 423.047 689.096 423.243 689.292C423.449 689.488 423.551 689.726 423.551 690.006C423.551 690.295 423.449 690.538 423.243 690.734C423.047 690.93 422.8 691.028 422.501 691.028Z" fill="black"/>
<rect x="369.5" y="601.5" width="216" height="47" stroke="#EDEDED"/>
<path d="M390.526 630L389.028 620.2H390.218L391.212 627.76L392.598 620.2H393.802L395.188 627.76L396.182 620.2H397.372L395.874 630H394.53L393.2 622.468L391.87 630H390.526ZM398.053 630V620.2H399.229V624.428H403.975V620.2H405.151V630H403.975V625.492H399.229V630H398.053ZM406.251 630L409.317 620.2H410.675L413.727 630H412.439L411.725 627.564H408.253L407.539 630H406.251ZM409.961 621.852L408.547 626.584H411.431L410.017 621.852H409.961ZM417.796 630V621.264H415.164V620.2H421.604V621.264H418.972V630H417.796ZM431.435 630L434.501 620.2H435.859L438.911 630H437.623L436.909 627.564H433.437L432.723 630H431.435ZM435.145 621.852L433.731 626.584H436.615L435.201 621.852H435.145ZM440.515 630V620.2H443.525C444.281 620.2 444.902 620.326 445.387 620.578C445.882 620.83 446.251 621.175 446.493 621.614C446.736 622.043 446.857 622.533 446.857 623.084C446.857 623.728 446.689 624.297 446.353 624.792C446.027 625.277 445.523 625.618 444.841 625.814L446.969 630H445.569L443.595 625.982H443.525H441.691V630H440.515ZM441.691 624.904H443.483C444.23 624.904 444.776 624.736 445.121 624.4C445.476 624.055 445.653 623.616 445.653 623.084C445.653 622.524 445.481 622.081 445.135 621.754C444.799 621.427 444.244 621.264 443.469 621.264H441.691V624.904ZM448.966 630V620.2H455.084V621.264H450.142V624.526H454.664V625.59H450.142V628.936H455.084V630H448.966ZM468.163 630V621.264H465.531V620.2H471.971V621.264H469.339V630H468.163ZM473.603 630V620.2H474.779V624.428H479.525V620.2H480.701V630H479.525V625.492H474.779V630H473.603ZM482.544 630V620.2H488.662V621.264H483.72V624.526H488.242V625.59H483.72V628.936H488.662V630H482.544ZM499.403 630V620.2H505.521V621.292H500.579V624.708H504.807V625.758H500.579V630H499.403ZM507.727 630V620.2H513.845V621.264H508.903V624.526H513.425V625.59H508.903V628.936H513.845V630H507.727ZM515.38 630L518.446 620.2H519.804L522.856 630H521.568L520.854 627.564H517.382L516.668 630H515.38ZM519.09 621.852L517.676 626.584H520.56L519.146 621.852H519.09ZM526.925 630V621.264H524.293V620.2H530.733V621.264H528.101V630H526.925ZM535.893 630.168C535.24 630.168 534.656 630.033 534.143 629.762C533.639 629.491 533.238 629.081 532.939 628.53C532.65 627.97 532.505 627.27 532.505 626.43V620.2H533.681V626.472C533.681 627.312 533.886 627.961 534.297 628.418C534.708 628.875 535.249 629.104 535.921 629.104C536.593 629.104 537.13 628.875 537.531 628.418C537.932 627.961 538.133 627.312 538.133 626.472V620.2H539.309V626.43C539.309 627.27 539.16 627.97 538.861 628.53C538.562 629.081 538.156 629.491 537.643 629.762C537.13 630.033 536.546 630.168 535.893 630.168ZM541.25 630V620.2H544.26C545.016 620.2 545.636 620.326 546.122 620.578C546.616 620.83 546.985 621.175 547.228 621.614C547.47 622.043 547.592 622.533 547.592 623.084C547.592 623.728 547.424 624.297 547.088 624.792C546.761 625.277 546.257 625.618 545.576 625.814L547.704 630H546.304L544.33 625.982H544.26H542.426V630H541.25ZM542.426 624.904H544.218C544.964 624.904 545.51 624.736 545.856 624.4C546.21 624.055 546.388 623.616 546.388 623.084C546.388 622.524 546.215 622.081 545.87 621.754C545.534 621.427 544.978 621.264 544.204 621.264H542.426V624.904ZM549.7 630V620.2H555.818V621.264H550.876V624.526H555.398V625.59H550.876V628.936H555.818V630H549.7ZM561.189 630.168C560.498 630.168 559.896 630.037 559.383 629.776C558.879 629.515 558.487 629.151 558.207 628.684C557.936 628.217 557.796 627.671 557.787 627.046H559.019C559.028 627.606 559.215 628.091 559.579 628.502C559.952 628.903 560.489 629.104 561.189 629.104C561.833 629.104 562.327 628.95 562.673 628.642C563.027 628.325 563.205 627.947 563.205 627.508C563.205 627.144 563.121 626.841 562.953 626.598C562.785 626.346 562.509 626.127 562.127 625.94C561.753 625.744 561.249 625.543 560.615 625.338C559.719 625.067 559.065 624.699 558.655 624.232C558.244 623.765 558.039 623.187 558.039 622.496C558.039 622.029 558.16 621.609 558.403 621.236C558.645 620.863 558.995 620.569 559.453 620.354C559.91 620.139 560.465 620.032 561.119 620.032C561.735 620.032 562.271 620.149 562.729 620.382C563.195 620.606 563.555 620.923 563.807 621.334C564.068 621.745 564.199 622.216 564.199 622.748H562.967C562.967 622.487 562.897 622.23 562.757 621.978C562.617 621.726 562.407 621.516 562.127 621.348C561.847 621.18 561.492 621.096 561.063 621.096C560.549 621.096 560.12 621.222 559.775 621.474C559.429 621.717 559.257 622.053 559.257 622.482C559.257 622.809 559.331 623.084 559.481 623.308C559.639 623.532 559.896 623.737 560.251 623.924C560.605 624.101 561.086 624.293 561.693 624.498C562.262 624.685 562.747 624.904 563.149 625.156C563.559 625.399 563.872 625.702 564.087 626.066C564.311 626.43 564.423 626.883 564.423 627.424C564.423 627.956 564.287 628.427 564.017 628.838C563.746 629.249 563.368 629.575 562.883 629.818C562.397 630.051 561.833 630.168 561.189 630.168Z" fill="black"/>
<g opacity="0.9">
<path d="M278 446C300.091 446 318 428.091 318 406C318 383.909 300.091 366 278 366C255.909 366 238 383.909 238 406C238 428.091 255.909 446 278 446Z" fill="white" stroke="black" stroke-miterlimit="10" stroke-linecap="round"/>
<path d="M281.616 396.069L278 406.001L261.124 399.858L257.644 409.422L274.52 415.564L269.659 428.918L281.754 433.32" stroke="black" stroke-miterlimit="10" stroke-linecap="round"/>
<path d="M266.429 391.406C268.302 391.406 269.82 389.888 269.82 388.015C269.82 386.143 268.302 384.625 266.429 384.625C264.557 384.625 263.039 386.143 263.039 388.015C263.039 389.888 264.557 391.406 266.429 391.406Z" fill="black"/>
<path d="M290.619 400.209C292.491 400.209 294.009 398.691 294.009 396.818C294.009 394.946 292.491 393.428 290.619 393.428C288.746 393.428 287.228 394.946 287.228 396.818C287.228 398.691 288.746 400.209 290.619 400.209Z" fill="black"/>
<path d="M301.97 392.652C296.984 389.153 291.162 387.035 285.094 386.509" stroke="black" stroke-miterlimit="10" stroke-linecap="round"/>
<path d="M287.263 390.753L282.525 403.771L300.153 410.187L304.891 397.168L263.074 381.948L258.336 394.967L275.964 401.382L280.702 388.364" stroke="black" stroke-miterlimit="10" stroke-linecap="round"/>
</g>
</g>
</g>
<defs>
<clipPath id="clip0_5001_848">
<rect width="557" height="701" fill="white"/>
</clipPath>
<clipPath id="clip1_5001_848">
<rect width="428" height="926" fill="white" transform="translate(64 85)"/>
</clipPath>
<clipPath id="clip2_5001_848">
<rect width="428" height="48" fill="white" transform="translate(64 85)"/>
</clipPath>
</defs>
</svg>
