<svg width="441" height="199" viewBox="0 0 441 199" fill="none" xmlns="http://www.w3.org/2000/svg">
    <rect width="441" height="199" fill="white" />
    <path d="M91 78.9844H157.054V198.595H91V78.9844Z" fill="#F25430" />
    <path d="M91 78.9844H114.208V198.595H91V78.9844Z" fill="#242424" />
    <path d="M83.3184 141.014H119.913V148.332H76V121.984H83.3184V141.014Z" fill="#F25430" />
    <path d="M176.029 123.303V159.897H183.348V115.984H157V123.303H176.029Z" fill="#F25430" />
    <path d="M123.134 89.6958H148.128V109.333H123.134V89.6958Z" fill="#242424" />
    <path d="M134.391 95.9844H130V100.376H134.391V95.9844Z" fill="#ED855F" />
    <path d="M144.638 95.9844H140.246V100.376H144.638V95.9844Z" fill="#ED855F" />
    <path d="M144.557 112.904H148.128V116.474H144.557V112.904Z" fill="#242424" />
    <path d="M137.416 112.904H140.987V116.474H137.416V112.904Z" fill="#242424" />
    <path d="M130.275 112.904H133.846V116.474H130.275V112.904Z" fill="#242424" />
    <path d="M123.134 112.904H126.705V116.474H123.134V112.904Z" fill="#242424" />
    <path d="M148.128 120.045H151.698V123.615H148.128V120.045Z" fill="#242424" />
    <path d="M140.987 120.045H144.557V123.615H140.987V120.045Z" fill="#242424" />
    <path d="M133.846 120.045H137.416V123.615H133.846V120.045Z" fill="#242424" />
    <path d="M126.705 120.045H130.275V123.615H126.705V120.045Z" fill="#242424" />
    <path d="M137.416 134.327H151.698V137.897H137.416V134.327Z" fill="#242424" />
    <path d="M114.208 125.401H123.134V198.596H114.208V125.401Z" fill="#242424" />
    <path d="M114.208 116.474H119.564V125.401H114.208V116.474Z" fill="#242424" />
    <path d="M157.054 125.401H165.98V198.596H157.054V125.401Z" fill="#F25430" />
    <path d="M157.054 116.474H162.41V125.401H157.054V116.474Z" fill="#F25430" />
    <path d="M153.483 127.186H157.054V130.756H153.483V127.186Z" fill="#242424" />
    <path d="M146.342 127.186H149.913V130.756H146.342V127.186Z" fill="#242424" />
    <path d="M139.201 127.186H142.772V130.756H139.201V127.186Z" fill="#242424" />
    <path d="M132.061 127.186H135.631V130.756H132.061V127.186Z" fill="#242424" />
    <path d="M142.772 136.112H149.913V145.038H142.772V136.112Z" fill="#BDAF9E" />
    <path d="M301.891 90.5027H295.022V97.3723H301.891V90.5027Z" fill="#E0A84F" />
    <path
        d="M349.978 44.1365V38.9844H332.804V44.1365V52.7235H336.239V63.0279H349.978V52.7235H339.674V44.1365H349.978Z"
        fill="#D63335" />
    <path
        d="M341.391 88.7887V87.0713V63.0278H320.783H301.891V71.6148H298.457V80.2017H295.022V90.5061H303.609V80.2017H307.043V71.6148H320.783V87.0713H317.348V112.829H341.391V97.3757H360.283V88.7887H341.391Z"
        fill="#6433CC" />
    <path
        d="M399.783 112.829V130.003H370.587V145.459H341.391V162.633H312.196V178.09H283V198.698H441V178.09V162.633V145.459V130.003V112.829H399.783Z"
        fill="#F6F4EF" />
    <path d="M367.152 88.7853H360.283V97.3722H367.152V88.7853Z" fill="#E0A84F" />
    <path
        d="M317.348 112.829V122.69H312.196V131.277H307.043V139.864H301.891V148.451H296.739V157.038H291.587V165.625H286.435V174.212H300.174V165.625H305.326V157.038H310.478V148.451H315.63V139.864H322.5V131.277H327.652V123.133H351.696V145.459H362V123.133V112.829H317.348Z"
        fill="#576355" />
    <path d="M346.492 44.1331H339.674V52.72H346.492V44.1331Z" fill="#E0A84F" />
    <path d="M336.239 52.72H332.804V63.0243H336.239V52.72Z" fill="#E0A84F" />
    <path d="M101.5 93.5844H59V122.484H101.5V93.5844Z" fill="#576355" />
    <path d="M87.8999 93.5844H84.4999V122.484H87.8999V93.5844Z" fill="#ED855F" />
    <path d="M101.5 107.184H59V110.584H101.5V107.184Z" fill="#ED855F" />
    <path
        d="M87.8965 86.7809H84.5033V83.3877H81.0999V86.7809H74.3033V90.1843H81.0999V93.5877H91.2998V90.1843H98.0964V86.7809H91.2998V83.3877H87.8965V86.7809Z"
        fill="#ED855F" />
    <path d="M74.3034 83.3877H70.9V86.7843H74.3034V83.3877Z" fill="#ED855F" />
    <path d="M81.0999 79.9844H74.3033V83.3878H81.0999V79.9844Z" fill="#ED855F" />
    <path d="M101.5 83.3877H98.0966V86.7843H101.5V83.3877Z" fill="#ED855F" />
    <path d="M98.0965 79.9844H91.2999V83.3878H98.0965V79.9844Z" fill="#ED855F" />
</svg>